<?xml version="1.0" encoding="utf-8"?>
<!-- Generator: Adobe Illustrator 16.0.0, SVG Export Plug-In . SVG Version: 6.00 Build 0)  -->
<!DOCTYPE svg PUBLIC "-//W3C//DTD SVG 1.1//EN" "http://www.w3.org/Graphics/SVG/1.1/DTD/svg11.dtd">
<svg version="1.1" id="Layer_1" xmlns="http://www.w3.org/2000/svg" xmlns:xlink="http://www.w3.org/1999/xlink" x="0px" y="0px"
	 width="167.131px" height="35px" viewBox="0 0 167.131 35" style="enable-background:new 0 0 167.131 35;" xml:space="preserve">
<style type="text/css">
<![CDATA[
	.st0{fill:#FFFFFF;}
]]>
</style>
<g>
	<g>
		<path class="st0" d="M11.054,25.732H8.657L3.863,13.678v12.054h-3.36V9.285h4.958l4.418,11.466L14.46,9.285h4.864v16.448h-3.36
			V13.725L11.054,25.732z"/>
		<path class="st0" d="M39.858,25.732l-1.057-3.055H32.95l-1.104,3.055h-3.736l6.72-16.448h2.726l6.18,16.448H39.858z
			 M33.937,19.929h3.924l-1.903-5.522h-0.023L33.937,19.929z"/>
		<path class="st0" d="M58.184,11.869c-1.128,0-2.138,0.564-2.138,1.645c0,1.269,1.551,1.621,2.819,2.068
			c2.326,0.799,5.123,1.879,5.123,5.334c0,3.571-3.36,5.099-6.227,5.099c-2.538,0-4.511-0.963-6.297-2.749l2.232-2.186
			c1.339,1.293,2.374,2.068,4.088,2.068c1.316,0,2.609-0.635,2.609-2.092c0-1.41-1.504-1.95-3.172-2.562
			c-2.139-0.798-4.535-1.738-4.535-4.887c0-3.125,2.655-4.605,5.381-4.605c2.115,0,3.783,0.681,5.451,1.95l-1.926,2.397
			C60.675,12.574,59.453,11.869,58.184,11.869z"/>
		<path class="st0" d="M78.93,12.127v13.605h-3.36V12.127h-3.901V9.285H82.83v2.843H78.93z"/>
		<path class="st0" d="M91.429,25.732V9.285h10.55v2.843h-7.189v3.713h7.189v2.843h-7.189v4.206h7.189v2.843H91.429z"/>
		<path class="st0" d="M116.851,9.285c2.655,0,6.016,1.362,6.016,4.934c0,2.562-1.738,3.972-3.571,4.582
			c1.456,2.045,3.9,5.404,5.028,6.932h-4.229l-4.512-6.556h-0.588v6.556h-3.359V9.285H116.851z M114.994,16.334h1.316
			c1.691,0,2.961-0.611,2.961-2.045c0-1.292-1.011-2.162-2.515-2.162h-1.763V16.334z"/>
		<path class="st0" d="M133.108,25.732V9.285h10.55v2.843h-7.189v3.713h7.189v2.843h-7.189v4.206h7.189v2.843H133.108z"/>
		<path class="st0" d="M153.314,9.285h4.793c4.253,0,9.023,2.208,9.023,8.153c0,6.085-4.723,8.294-9.234,8.294h-4.582V9.285z
			 M156.675,22.89h0.376c3.854,0,6.484-1.363,6.484-5.24c0-3.618-2.139-5.522-5.827-5.522h-1.033V22.89z"/>
	</g>
	<rect x="1" y="31" class="st0" width="166" height="4"/>
	<rect x="1" class="st0" width="166" height="4"/>
</g>
</svg>
